<svg id="Layer_2" height="512" viewBox="0 0 128 128" width="512" xmlns="http://www.w3.org/2000/svg" data-name="Layer 2"><path d="m88.128 56.493a15.526 15.526 0 0 1 -7.539-13.272v-22.067a6.755 6.755 0 0 0 5.661-6.654v-7.75a6.758 6.758 0 0 0 -6.75-6.75h-31a6.758 6.758 0 0 0 -6.75 6.75v7.75a6.755 6.755 0 0 0 5.661 6.654v22.067a15.525 15.525 0 0 1 -7.54 13.272 19.042 19.042 0 0 0 -9.246 16.278v47.479a7.759 7.759 0 0 0 7.75 7.75h51.25a7.759 7.759 0 0 0 7.75-7.75v-47.479a19.041 19.041 0 0 0 -9.247-16.278zm-42.878-41.993v-7.75a3.254 3.254 0 0 1 3.25-3.25h31a3.254 3.254 0 0 1 3.25 3.25v7.75a3.254 3.254 0 0 1 -3.25 3.25h-31a3.254 3.254 0 0 1 -3.25-3.25zm-3.586 45a19.04 19.04 0 0 0 9.247-16.278v-21.972h26.178v21.971a19.041 19.041 0 0 0 9.247 16.279 15.526 15.526 0 0 1 7.539 13.272v5.638h-6.5v-5.639a9 9 0 0 0 -4.368-7.689 25.3 25.3 0 0 1 -4.407-3.353 1.752 1.752 0 0 0 -1.2-.479h-26.8a1.752 1.752 0 0 0 -1.2.479 25.235 25.235 0 0 1 -4.407 3.353 9 9 0 0 0 -4.368 7.689v5.638h-6.5v-5.638a15.526 15.526 0 0 1 7.539-13.271zm52.211 46h-59.75v-23.591h59.75zm-49.75 3.5h39.75v5.5h-39.75zm39.75-30.592h-39.75v-5.637a5.48 5.48 0 0 1 2.66-4.684 28.545 28.545 0 0 0 4.5-3.338h25.427a28.5 28.5 0 0 0 4.5 3.338 5.48 5.48 0 0 1 2.66 4.684zm5.75 46.091h-51.25a4.255 4.255 0 0 1 -4.25-4.25v-11.249h6.5v7.249a1.75 1.75 0 0 0 1.75 1.75h43.25a1.75 1.75 0 0 0 1.75-1.75v-7.249h6.5v11.25a4.255 4.255 0 0 1 -4.25 4.25z"/></svg>